<?xml version="1.0" encoding="utf-8"?>
<!-- Bottle icon by Arthur Shlain from Usefulicons.com -->
<svg xmlns="http://www.w3.org/2000/svg" xmlns:xlink="http://www.w3.org/1999/xlink" xml:space="preserve" version="1.1" x="0px" y="0px" viewBox="0 0 100 100" width="400px" height="400px"><g style="fill: #347392"><path d="M65,35C61.799,31.799,60,27.456,60,22.929L60,15C60,12.239,57.761,10,55,10L45,10C42.239,10,40,12.239,40,15L40,22.929C40,27.457,38.201,31.799,35,35C31.799,38.201,30,42.544,30,47.071L30,80C30,85.523,34.477,90,40,90L60,90C65.523,90,70,85.523,70,80L70,47.071C70,42.544,68.201,38.201,65,35ZM45,22.929L45,20L55,20L55,22.929C55,28.824,57.296,34.367,61.464,38.536C63.247,40.319,64.393,42.565,64.812,45L35.187,45C35.606,42.564,36.752,40.319,38.535,38.536C42.704,34.367,45,28.824,45,22.929ZM65,80C65,82.757,62.757,85,60,85L40,85C37.243,85,35,82.757,35,80L35,75L65,75L65,80Z" stroke="none"></path></g></svg>