<?xml version="1.0" encoding="utf-8"?>
<!-- Clock icon by Arthur Shlain from Usefulicons.com -->
<svg xmlns="http://www.w3.org/2000/svg" xmlns:xlink="http://www.w3.org/1999/xlink" xml:space="preserve" version="1.1" x="0px" y="0px" viewBox="0 0 100 100" width="400px" height="400px"><g style="fill: #c39c4e"><path d="M50,95C74.9,95,95,74.9,95,50C95,25.1,74.9,5,50,5S5,25.1,5,50C5,74.9,25.1,95,50,95ZM50,12.5C70.7,12.5,87.5,29.3,87.5,50S70.7,87.5,50,87.5S12.5,70.7,12.5,50S29.3,12.5,50,12.5Z" stroke="none"></path><path d="M68.6,57.8L52.5,48.6L52.5,20L47.5,20L47.5,51.4L66.1,62.2Z" stroke="none"></path></g></svg>